<svg version="1.1" id="Layer_1" xmlns="http://www.w3.org/2000/svg" xmlns:xlink="http://www.w3.org/1999/xlink" x="0px" y="0px"
	 width="100%" viewBox="0 0 400 400" enable-background="new 0 0 400 400" xml:space="preserve">
<path fill="#000000" opacity="1.000000" stroke="none" 
	d="
M19.000000,1.000000 
	C146.298080,1.000000 273.596161,1.000000 400.947113,1.000000 
	C400.947113,134.261124 400.947113,267.522278 400.947113,400.891724 
	C267.775848,400.891724 134.551590,400.891724 1.000000,400.891724 
	C1.000000,274.977539 1.000000,148.954819 1.244325,22.614182 
	C1.927981,22.511707 2.398363,22.962002 2.802154,22.908619 
	C17.448906,20.972170 19.358660,18.896854 20.513721,4.317937 
	C20.641754,2.701925 20.041687,1.859912 19.000000,1.000000 
M142.518356,283.007477 
	C143.513031,284.739380 144.442886,286.512451 145.513397,288.196136 
	C150.550735,296.118713 154.880783,297.731842 163.907898,295.063324 
	C165.741318,294.521332 167.476715,294.673126 169.288300,295.230225 
	C189.080505,301.316986 208.886566,301.533325 228.684647,295.244476 
	C230.821762,294.565613 232.843018,294.581696 235.011627,295.357941 
	C241.918365,297.830261 245.703949,296.819092 250.376129,291.105347 
	C252.365021,288.673035 254.173889,286.014709 255.600754,283.222137 
	C257.285278,279.925232 259.213654,278.068298 263.331268,278.470154 
	C267.393402,278.866638 270.670013,276.836884 272.824066,273.187439 
	C274.533691,270.290924 275.816528,267.229645 276.585327,263.976135 
	C277.294617,260.974487 278.606873,259.007904 282.027985,258.404694 
	C285.731293,257.751709 287.987823,255.035858 289.253571,251.489639 
	C290.745239,247.310455 291.119598,243.006271 290.320618,238.709595 
	C289.754944,235.667557 290.571686,233.693161 293.547333,233.062027 
	C296.899536,232.351028 297.523132,230.160995 297.658264,227.204514 
	C297.935913,221.130203 296.558014,215.278412 295.294159,209.458359 
	C293.294159,200.248138 293.141724,200.247101 302.589478,201.905365 
	C302.873108,201.955154 303.205841,201.725128 303.795807,201.535538 
	C304.703156,198.552383 303.610718,195.801987 302.280579,193.119110 
	C298.999268,186.500641 294.349121,180.837296 289.751770,175.123474 
	C286.402496,170.960770 287.380096,168.522491 292.518646,167.689133 
	C293.338989,167.556091 294.185394,167.537735 294.985260,167.332230 
	C299.419189,166.192978 300.277252,164.051315 298.005402,160.086151 
	C296.561890,157.566757 294.507538,155.719360 292.168518,154.038483 
	C284.292938,148.378952 275.528534,144.266144 267.168701,139.450500 
	C265.249725,138.345093 263.561432,136.984802 263.705994,134.407364 
	C263.840393,132.011581 265.802826,131.622940 267.494568,131.035324 
	C269.712708,130.264862 272.351379,129.761169 272.380035,126.840714 
	C272.407806,124.010735 269.710846,123.308685 267.694458,122.238571 
	C266.819763,121.774384 265.842865,121.501152 264.908844,121.150635 
	C254.475754,117.235268 243.678757,115.903206 232.570831,116.201630 
	C227.161560,116.346954 225.615067,113.840569 227.932755,109.539185 
	C228.709152,108.098274 230.124466,106.783279 228.789215,105.044373 
	C227.529831,103.404221 225.614624,103.217339 223.777390,103.483345 
	C219.997192,104.030670 216.117920,104.369011 212.506531,105.511330 
	C204.074341,108.178497 195.816940,109.133018 187.257233,105.924072 
	C182.734283,104.228462 177.843460,103.834351 172.976959,104.227440 
	C170.330338,104.441216 168.217331,105.224365 169.631653,108.603378 
	C172.380463,115.170700 171.699753,116.212204 164.558029,116.294922 
	C161.227325,116.333504 157.874893,116.118912 154.569717,116.424156 
	C145.579727,117.254410 136.821426,119.118698 128.659744,123.176910 
	C127.149857,123.927673 125.600113,124.822327 125.604195,126.773270 
	C125.608910,129.026596 127.456223,129.726959 129.161041,130.452682 
	C131.211349,131.325455 134.041367,131.314575 134.251831,134.400497 
	C134.471985,137.628906 132.002899,139.014236 129.669907,140.340439 
	C123.158730,144.041718 116.532379,147.548523 110.118118,151.408966 
	C106.578201,153.539474 102.955986,155.755905 100.576973,159.324112 
	C98.189011,162.905746 99.157303,165.650146 103.187027,167.090698 
	C112.616196,170.461456 112.666206,170.503357 106.012199,178.438232 
	C102.463837,182.669647 99.341522,187.170303 96.711189,192.008820 
	C95.842354,193.607071 94.981224,195.295242 94.591873,197.047897 
	C94.039551,199.534180 94.626389,201.257675 97.922241,200.907089 
	C104.127907,200.246979 105.033096,201.264221 103.580101,207.376663 
	C101.997078,214.036179 100.703499,220.700745 101.180115,227.586121 
	C101.317116,229.565231 101.196442,232.025925 103.646896,232.527267 
	C108.374954,233.494598 108.484901,236.798370 108.348053,240.493942 
	C108.255707,242.987762 108.173759,245.508972 108.428024,247.982895 
	C108.920097,252.770538 110.909637,256.929230 115.868942,258.168823 
	C119.569054,259.093689 121.036102,261.029602 121.750221,264.528778 
	C122.273071,267.090759 123.422363,269.613281 124.723656,271.908966 
	C127.160728,276.208282 130.533981,279.208038 136.020157,278.375977 
	C139.213684,277.891632 140.974030,279.721802 142.518356,283.007477 
M316.434570,257.852081 
	C317.063873,256.677979 317.871582,255.564682 318.295410,254.320587 
	C323.692871,238.478043 319.256226,223.475922 314.181213,208.577545 
	C313.463074,206.469376 311.778717,206.376984 309.693756,207.495224 
	C302.951263,211.111404 303.380035,210.988678 303.993011,219.163605 
	C304.548309,226.569595 306.461365,234.712173 298.507568,240.125778 
	C296.988953,241.159378 297.339539,243.145828 297.312195,244.796112 
	C297.194305,251.918564 295.214355,258.240631 289.615326,263.053284 
	C288.323853,264.163391 286.964020,265.420166 288.030975,267.284607 
	C289.035522,269.040009 290.933502,268.605011 292.564362,268.539124 
	C294.326416,268.467926 295.632751,267.349579 296.981476,266.373322 
	C301.512238,263.093719 304.864777,258.760956 307.926392,254.161560 
	C309.078857,252.430252 309.788483,250.235184 312.222015,249.700760 
	C313.757172,253.962158 309.665497,257.764648 311.023834,262.026978 
	C313.817322,261.812012 314.811005,259.978760 316.434570,257.852081 
M95.033569,251.442780 
	C96.350754,252.739639 96.844147,255.718216 99.374901,254.639481 
	C101.603996,253.689331 100.833923,251.105118 100.578865,249.235229 
	C100.222557,246.623062 100.126190,243.551361 98.680046,241.589066 
	C93.748146,234.896790 93.408699,227.461975 93.877663,219.706039 
	C93.976784,218.066650 93.949104,216.301605 93.442062,214.772812 
	C92.776711,212.766739 91.882423,210.496582 89.242310,210.402939 
	C86.434135,210.303360 85.013458,212.274811 84.455528,214.673950 
	C82.458549,223.261093 80.339241,231.927338 81.523132,240.787216 
	C82.193298,245.802521 82.749939,251.330444 87.907883,254.483047 
	C91.674522,251.516174 87.410416,247.852631 89.851654,244.404175 
	C91.564056,246.737518 93.088791,248.815155 95.033569,251.442780 
z"/>
<path fill="#000000" opacity="1.000000" stroke="none" 
	d="
M182.652664,214.807953 
	C182.334518,214.152847 182.116196,213.868652 182.052368,213.553177 
	C180.455170,205.659607 180.399414,205.548141 172.936432,209.495117 
	C156.637009,218.115417 144.939728,231.249374 136.305313,247.321213 
	C135.834198,248.198120 135.410202,249.102539 134.894989,249.952118 
	C134.745239,250.199020 134.354645,250.299866 133.375732,250.886108 
	C131.587631,242.970566 133.345810,235.078140 132.488495,227.810989 
	C129.986633,226.494522 129.200089,229.369766 126.832031,228.594360 
	C125.856323,216.111588 129.005402,204.506729 135.270615,193.603821 
	C136.563980,191.353058 138.724243,189.486984 137.969818,186.396591 
	C137.826920,185.811264 138.559479,184.898483 139.067535,184.285522 
	C144.326508,177.940506 160.015686,173.327179 167.582993,175.828842 
	C175.774307,178.536789 179.777893,184.673111 181.326721,192.725922 
	C182.500031,198.826355 182.727524,198.782928 188.761398,198.093338 
	C196.530594,197.205429 204.391510,196.851456 212.121048,198.474487 
	C215.944733,199.277374 217.296097,198.393921 217.864044,194.268692 
	C219.997894,178.769440 231.841736,171.733643 246.593475,176.791718 
	C250.065781,177.982315 253.515869,179.258057 256.468842,181.511932 
	C258.687256,183.205109 261.982117,184.133224 260.689697,188.301483 
	C260.398010,189.242264 262.037720,190.832260 262.874634,192.064819 
	C270.452698,203.225220 272.761688,215.759171 272.814117,228.849915 
	C270.227570,230.217560 269.553131,226.340118 266.721436,227.593597 
	C265.109650,234.762100 269.332611,242.691299 265.870056,250.126999 
	C263.625641,249.757416 263.442871,247.868759 262.667633,246.492310 
	C253.386597,230.013580 241.271286,216.404114 223.823517,208.227219 
	C218.451569,205.709671 218.260971,205.851196 217.700363,211.470062 
	C216.918381,219.307831 203.100632,228.001450 195.798752,224.977249 
	C190.699753,222.865417 186.040131,219.898926 182.652664,214.807953 
z"/>
<path fill="#000000" opacity="1.000000" stroke="none" 
	d="
M176.393097,240.139709 
	C180.858475,238.909973 184.105911,236.615494 187.213089,233.656525 
	C195.588135,225.681000 203.859085,225.686859 212.140228,233.754227 
	C215.230759,236.764999 218.577255,238.743164 222.549911,240.189682 
	C228.055664,242.194382 230.129318,245.584335 229.457596,250.441559 
	C222.503418,246.659180 222.756973,246.888321 216.895325,253.374527 
	C205.475372,266.011261 194.527313,266.144073 182.120880,253.256775 
	C180.070969,251.127380 178.409332,248.624207 176.684738,246.441208 
	C173.265701,246.548813 172.706650,250.802795 168.869949,250.680862 
	C169.333420,245.682831 171.606674,242.298019 176.393097,240.139709 
z"/>
</svg>