<?xml version="1.0" standalone="no"?>
<!DOCTYPE svg PUBLIC "-//W3C//DTD SVG 20010904//EN"
 "http://www.w3.org/TR/2001/REC-SVG-20010904/DTD/svg10.dtd">
<svg version="1.0" xmlns="http://www.w3.org/2000/svg"
 width="400.000000pt" height="400.000000pt" viewBox="0 0 400.000000 400.000000"
 preserveAspectRatio="xMidYMid meet">

<g transform="translate(0.000000,400.000000) scale(0.100000,-0.100000)"
fill="#000000" stroke="none">
<path d="M2150 3026 c-36 -8 -89 -19 -119 -26 -46 -10 -63 -10 -125 6 -43 11
-110 18 -169 18 -97 1 -99 0 -123 -28 -14 -16 -23 -35 -20 -42 3 -8 9 -20 12
-28 4 -10 -14 -15 -78 -21 -46 -5 -85 -9 -88 -10 -3 -1 -31 -7 -64 -15 -80
-19 -197 -79 -215 -111 -20 -36 -8 -72 33 -94 19 -10 33 -22 30 -26 -2 -4 -38
-26 -79 -49 -153 -84 -235 -166 -235 -233 0 -15 13 -38 35 -59 l35 -34 -46
-60 c-112 -144 -184 -356 -186 -549 -2 -119 16 -183 68 -243 54 -64 177 -112
287 -112 52 0 56 -4 90 -62 28 -49 90 -88 139 -88 20 0 32 -10 52 -44 54 -93
146 -149 214 -131 44 12 90 9 217 -15 140 -26 223 -24 389 10 89 19 115 21
141 11 45 -16 70 -14 116 9 46 24 99 77 125 126 12 22 26 34 40 34 42 0 90 24
123 61 33 37 37 39 94 39 137 0 261 39 324 101 18 17 44 55 59 85 24 49 26 65
26 162 0 102 -32 275 -61 337 -6 11 -20 43 -32 70 -28 65 -81 148 -135 211
-48 55 -52 64 -30 64 23 0 56 50 56 85 0 42 -45 104 -107 147 -53 36 -153 98
-160 98 -2 0 -15 7 -28 16 l-25 16 32 18 c42 22 63 62 48 89 -32 61 -194 126
-357 144 -92 10 -101 12 -92 28 17 32 11 77 -12 90 -33 17 -126 19 -199 5z
m-242 -76 c69 -18 88 -20 118 -10 99 33 294 54 294 32 0 -4 -14 -24 -31 -45
-17 -21 -29 -44 -26 -51 4 -9 36 -15 104 -19 165 -9 333 -57 378 -107 16 -17
15 -19 -7 -33 -12 -8 -40 -18 -61 -21 -42 -8 -56 -28 -37 -51 7 -8 47 -34 89
-56 225 -123 308 -204 248 -244 -14 -8 -38 -17 -55 -20 -36 -4 -52 -12 -52
-26 0 -5 28 -44 62 -87 60 -75 105 -157 108 -197 5 -44 2 -46 -36 -30 -68 28
-81 15 -58 -60 17 -58 29 -193 20 -229 -5 -21 -12 -26 -36 -26 -33 0 -32 0
-30 -78 2 -57 -14 -117 -38 -145 -8 -9 -32 -22 -52 -27 -34 -9 -38 -14 -54
-71 -24 -86 -67 -129 -130 -129 -45 0 -45 0 -89 -67 -71 -109 -111 -132 -183
-107 -35 13 -47 12 -114 -5 -172 -45 -352 -45 -518 1 -67 18 -77 18 -111 5
-20 -8 -48 -13 -63 -10 -41 8 -92 57 -127 122 l-32 61 -50 0 c-76 0 -99 28
-154 188 -2 6 -14 12 -25 12 -62 0 -91 52 -94 164 l-1 81 -31 3 c-23 2 -34 9
-38 25 -11 40 -6 111 13 196 22 95 19 116 -15 107 -78 -20 -74 -20 -74 8 0 40
38 113 107 203 62 81 75 112 51 114 -120 8 -141 52 -60 128 26 25 105 77 175
115 154 85 172 112 85 134 -24 6 -52 18 -63 25 -18 14 -17 16 30 46 76 48 194
78 348 88 113 7 123 16 82 65 -26 31 -26 32 -8 46 24 18 130 10 241 -18z
m1236 -1047 c55 -166 70 -328 40 -418 -16 -45 -82 -125 -104 -125 -5 0 -1 24
10 53 10 28 22 70 25 92 l6 40 -32 -54 c-18 -30 -58 -80 -89 -111 -54 -54 -61
-57 -120 -64 -34 -4 -64 -5 -67 -2 -13 13 11 43 49 61 53 26 89 92 96 173 4
49 9 61 36 83 30 26 31 28 31 115 0 49 -4 108 -8 132 -9 41 -8 42 19 42 30 0
64 25 64 47 0 36 21 5 44 -64z m-2223 17 l30 0 -7 -47 c-12 -73 -9 -195 5
-221 7 -13 23 -27 36 -32 15 -6 23 -15 19 -24 -3 -7 0 -42 6 -77 13 -72 46
-123 94 -146 31 -14 31 -14 -19 -8 -60 6 -88 31 -157 135 l-50 75 7 -44 c4
-24 14 -60 22 -79 21 -51 8 -51 -40 -1 -49 51 -67 107 -67 203 0 65 29 227 49
280 l12 29 15 -21 c10 -14 26 -22 45 -22z"/>
<path d="M2415 2199 c-5 -7 -98 -24 -122 -22 -7 0 -11 -4 -10 -10 1 -6 -8 -16
-20 -22 -13 -5 -23 -13 -23 -18 0 -4 15 0 33 9 l32 16 -30 -25 c-16 -14 -33
-23 -37 -20 -5 2 -8 -5 -8 -15 0 -11 -6 -25 -14 -32 -8 -6 -12 -19 -9 -27 4
-11 2 -14 -5 -9 -7 4 -12 3 -12 -3 0 -5 6 -12 13 -15 15 -7 -31 -1 -108 14
-39 8 -93 10 -155 5 -52 -4 -107 -8 -122 -9 -16 0 -28 -5 -28 -9 0 -4 -6 -2
-14 5 -10 9 -11 15 -2 20 8 6 8 8 -1 8 -7 0 -10 7 -6 17 5 12 3 14 -7 8 -9 -5
-11 -4 -6 3 4 7 2 12 -3 12 -6 0 -11 5 -11 11 0 5 6 7 13 4 6 -4 4 0 -5 8 -20
16 -25 32 -7 21 8 -4 8 0 0 15 -7 11 -14 21 -17 21 -3 0 -3 -3 -1 -7 3 -5 1
-17 -4 -28 -7 -19 -8 -19 -8 3 -1 14 -7 22 -18 22 -16 0 -16 -2 -3 -11 13 -9
13 -10 0 -6 -8 2 -14 11 -12 19 3 21 -64 41 -121 37 -25 -2 -43 -1 -40 4 2 4
0 7 -6 7 -5 0 -11 -5 -13 -11 -3 -9 -11 -8 -28 1 -24 13 -24 12 -10 -5 14 -17
14 -17 -6 -7 -17 9 -25 8 -40 -3 -16 -13 -17 -14 -1 -9 9 3 17 1 17 -5 0 -6
-5 -11 -11 -11 -6 0 -8 -7 -5 -17 4 -10 4 -14 0 -10 -8 8 -54 -31 -54 -46 0
-6 -7 -19 -16 -29 -14 -14 -14 -20 -4 -33 7 -9 10 -18 6 -22 -3 -3 -6 -1 -6 7
0 10 -3 10 -15 0 -15 -13 -21 -35 -7 -26 4 2 6 -11 4 -31 -3 -19 1 -45 7 -56
6 -12 13 -33 15 -47 2 -14 8 -24 12 -23 5 1 28 -15 52 -35 l43 -37 -34 -53
c-18 -29 -36 -50 -39 -46 -4 3 -4 -3 -1 -14 2 -11 0 -23 -6 -26 -6 -4 -11 -12
-11 -18 0 -6 27 25 60 69 101 136 225 238 351 289 75 31 85 30 60 -2 -12 -15
-21 -35 -21 -45 0 -44 118 -139 172 -139 37 0 97 31 142 73 45 43 47 79 9 119
l-27 28 57 -19 c87 -30 165 -75 239 -139 58 -49 90 -85 191 -214 10 -13 6 2
-10 32 -15 30 -32 58 -37 61 -5 4 -6 11 -2 17 3 5 -1 15 -9 22 -13 10 -12 15
8 30 16 13 24 15 29 7 5 -8 8 -4 8 8 0 11 5 27 11 35 8 12 9 9 4 -10 -6 -25
-6 -25 12 3 11 15 21 25 24 23 4 -4 6 10 11 76 2 19 7 25 20 23 11 -3 15 1 11
11 -3 7 -9 12 -13 9 -4 -3 -10 2 -13 10 -4 10 -1 12 10 8 13 -5 14 -3 2 18 -7
13 -14 26 -14 29 -2 13 -59 90 -66 90 -5 0 -9 6 -9 13 0 30 -45 57 -95 57 -53
0 -58 8 -7 12 17 1 29 4 27 6 -8 8 -76 9 -80 1z m-991 -98 c4 -5 -3 -7 -14 -4
-23 6 -26 13 -6 13 8 0 17 -4 20 -9z m286 -37 c0 -8 -7 -14 -15 -14 -15 0 -21
21 -9 33 10 9 24 -2 24 -19z m646 15 c8 -14 -11 -33 -25 -25 -11 7 -4 36 9 36
5 0 12 -5 16 -11z"/>
<path d="M2205 2080 c-3 -5 -1 -10 4 -10 6 0 11 5 11 10 0 6 -2 10 -4 10 -3 0
-8 -4 -11 -10z"/>
<path d="M1280 1816 c0 -2 8 -10 18 -17 15 -13 16 -12 3 4 -13 16 -21 21 -21
13z"/>
<path d="M1420 1739 c0 -5 5 -7 10 -4 6 3 10 8 10 11 0 2 -4 4 -10 4 -5 0 -10
-5 -10 -11z"/>
<path d="M1960 1720 c-44 -12 -87 -38 -113 -70 -14 -16 -30 -30 -36 -30 -6 0
-28 -7 -48 -15 -39 -16 -65 -44 -77 -82 -10 -30 7 -30 23 0 7 13 21 28 31 35
16 10 22 6 44 -32 29 -50 71 -88 129 -117 52 -27 93 -26 148 1 47 24 139 113
139 136 0 29 22 24 55 -12 38 -41 47 -28 16 22 -13 21 -35 38 -68 49 -26 10
-64 32 -83 50 -66 59 -112 78 -160 65z m-25 -154 c42 -13 52 -13 85 0 67 27
146 -8 121 -54 -13 -23 -61 -68 -61 -56 0 5 -7 0 -15 -10 -21 -27 -102 -33
-149 -11 -24 12 -35 23 -32 32 3 8 1 11 -5 8 -10 -7 -59 38 -59 54 0 19 28 44
44 38 10 -4 15 -3 11 3 -8 13 3 13 60 -4z"/>
<path d="M2099 1483 c-13 -16 -12 -17 4 -4 9 7 17 15 17 17 0 8 -8 3 -21 -13z"/>
<path d="M2616 1572 c-3 -5 1 -9 9 -9 8 0 12 4 9 9 -3 4 -7 8 -9 8 -2 0 -6 -4
-9 -8z"/>
</g>
</svg>
